<mxfile host="Electron" agent="Mozilla/5.0 (Windows NT 10.0; Win64; x64) AppleWebKit/537.36 (KHTML, like Gecko) draw.io/25.0.1 Chrome/128.0.6613.186 Electron/32.2.6 Safari/537.36" version="25.0.1">
  <diagram id="VCILioWAPDcCPhncbQX6" name="overview">
    <mxGraphModel dx="771" dy="492" grid="1" gridSize="10" guides="1" tooltips="1" connect="1" arrows="1" fold="1" page="1" pageScale="1" pageWidth="827" pageHeight="1169" math="0" shadow="0">
      <root>
        <mxCell id="0" />
        <mxCell id="1" parent="0" />
        <mxCell id="tVO9BalmmOsq1mHJatIv-12" value="" style="shape=image;verticalLabelPosition=bottom;labelBackgroundColor=default;verticalAlign=top;aspect=fixed;imageAspect=0;image=data:image/png,iVBORw0KGgoAAAANSUhEUgAAAooAAAE6CAYAAACRVnNkAAAAAXNSR0IArs4c6QAAAARnQU1BAACxjwv8YQUAAAAJcEhZcwAADsMAAA7DAcdvqGQAAGfrSURBVHhe7d0HfBNl4wfwX5p0772AltHSBRQoQ5YioixRHLj1xfHqq/4diIIIbhTFPfFF3NtXVFBERFA2smdbSqEtdO890/s/d7lCWg5oQ2lS/X35HEmeuye9XJ7kfnlu6WL7xEsgIiIiIjJTXlYGO/U+EREREVEzDIpEREREpIlBkYiIiIg0MSgSERERkSYGRSIiIiLSxKBIRERERJoYFImIiIhIE4MiEREREWliUCQiIiIiTQyKRERERKSJQZGIiIiINJ2zoOjv5w8nJyf1ERERERF1NvqAwKAn1fvtJrx7dzz55NOIjx+ALVs2oaGhQR1D/xQxMbHw8fFFUVGhWmLbPL08MX7cBJw3dDhcnF1w9NhRdYxJfP8BuPjiixEZ2RsFhfmorKxUx9geBwcHGI1G9REREZFl6mpr2z8oBgUGYfbsOdi9Zzf8/f1FWOyPLX9tRqOxUZ2CWiM6OgajRo1SbpuGqKholJeXiaFcnco2XX31VEybdhuGDx+B/gMG4JgIXUVFRepY2+PvH4Bn5z0PXxFsa2trcMm48QgOCcH27duU8fLrufGGm1BcXIJu3brhiilXYd++veJxsTLelvj6+uCRR2aIed8pXkutWkpERNR27R4Uvb28MXvOXKSlHcFbb76J7Tu2YeKESegdGYW/RFiUJEmdkk5n0KDBmD79ITg5uyBAhJhAEb7lISwsHOPHT8BeEVJKSkrUqW3Pv/41DT/++D0++uhDhIV3x4033ozAgCCkHk5FTU21OpXtuOHGG1FfV49nnn1K/KjZgl27d2GaeA07d+1Uxj/wwIN45ZWXsGzZj/jzzz8QEhyKgQmDsH79OmW8Lenbt6/4QRGFoxkZyMvPV0uJiIjarl2DoqurK2bNfgxlpaVipfoKjMYGVFdXY/euXbh8yhXo2qWrEhxtib2DPe684y5cfPElGDlylDLExcZh955dVu0BnTr1WqRnpOPTTz5RerWahr9EiPEPCMDll01RemzLykrVGrZl/ISJ2LtnL5KTk7Bt21bs27cPI0aMwJVXXgWdzg6Hj6TaVA/z5Esvw86dO3HwYLLyWG7DF5w/GhlHM2AwGES7GIn33ntPjDH90JHbzbDhw/HLL8uVx7bk/FEjlTZSVFyE1NTDaikREVHbyUGxXQ5msbe3x/TpMxAUEIStW7di6JChcHFxgZubG3r1isDmTZswXASFG2+4Wa1hG6688mpEx8QgKSnx+CA/lsutycXVBZUVFeqjE+Qe2W+/+Raphw7h+efm49NPvzhpWLRoMW677Q7lPbEVKSkH8cQTc/HJJx9h7EUX44UXXsLgwYPVsdZ39OhR9O/fH3q9Xnncs2cveHl7i/IMZGYeQ2OjhIEJCco4Ozs7pTfxaEbzfRhtgU6nQ/ce3ZVN4qGhXdTSEwIDA5VpiIiIWksX2yf+rLcHy0c4P/zwTBgc7JX7jY2NeOaZp5QV72OPzRFT6FBQWIDioiKl3FoiIiJx1513Q6c3rSz9fH3xyssvKZsam8T3i8f0h2aI+TUdhCEZJSx87x0l7HSU2Y/NxTERXlauXKmWNCeHlW5du0FvMAUbc84ioF82+TL89ttKLF36g1rasV559XV8/913WLd+rVpygrOzMyaL+Rs3bgIOHUoR4fZjZGRkqGOtw9vbB089/Qzqa+uRlZ2J2Jg4/Ll2DT7++CNl/KRJk5X9FOWeUR9fH/iI6Z+d97SyedeWhIaG4q677sTPPy/HRReNwbx5zx3f3UP+0TZz5iP47PPPkZxk6jklIiI6nfKysvbZ9FxVVYU1f6xGeFi4stnr9ddfQWLiARSKcJiRno6EhAT89ddfePPNN8TU1ttPMTYmFv0HDsC3X3+NpMRE/L7qN+zZu0cda5KTm4OUgweRdiRNmUaePu3wERFm0tUpzr2Ro85HmXhzUlNT1ZLm5JV/SWmJ0nPUcsjLyxOhwBXh4eHYsGG9WqNjyQeDyMtOa5nJR8Dv378PmzZvQFRUDG644UYR1LxxKOUQ6urq1Kk6lrzf5Nq1f6K+oV4MDfj5p2X49dcV6lgom6Tl9uzi4qy0DXnfy1zRTswNGDAAoV26IisrUy3pePHx8XB3d8eaNWswatRI7N69W9n9Q9a7d2/ExcUpyz8pMUkpIyIiOp122/Qsb2aWexSjY2Mx79mnlRVUk+07tuP555/DkCFDcd/9D8De3kEdYx01NTVKT5c87BOBRSb3giYMGoyQkBDlsVzeNI08fWcjnxpFbzCoj2xTXm4eXnv1ZbzwwvOIiOyNl15+FUOGnqeO7Vg+Pj5KT3JVZRUyjx4TYcsDI0eMajbIBxVlHstEaVkpDOomapm87+2sWY/hwQdnKO3Imnr26IHDhw8rPxiqqqqPt2dZjx7dlSAuH+jCzc9ERNRaZx0UfX19MffxJ+Hu4YGnnnwcaelp6pgT5M22Tz/zJMLCwsRK9VFlM5itOP+CC7DgpVdw2623Y/78BVbfP/GfZv/+/Xhs9iysWPEL/n3HnXB0dFTHdAwf0X7l9/2662/ElCuvPONwzTXXKftYRkZGYtq/blNOq1NfX4f8go4/wtjL2wveXqZBDrth4WFIPWQ6gCUrM1PZFN2kR4+eWL9+A5ydnBAbE3O8njwQERGdylkHxQcefAhdQrsoPSuvvfamckDFHf++Ux0L5b5c9qJYuco9LvIJi2+/7Q51rHXJ+8vdctM05SCL//zn33jxxfnK/nPmK1jqKBJ04l9H69Wzp9IDe++9/8H0B+8/43Df/92D6poqzJw5G72jorBgwQt4+eUFqCw/+eCjc2n48OGY8dBDeGiGaZg+/UFls3Ja+hFlfGZWpvhcmtqxp6encn5FOZQf2H8A11537fF68sD2TkREp3LWQfGdt97Ec889i/++t1DZHyo/Lxe//PyzOhZYsXw5igoLlRNFv/Xm68q0n372iTrWugIDApVTnWzatFF5LJ9EubKygivODhQr767w3Hzl4JZ3Fr7d8SeJ1tm1+Somzs6uyrlCZ8+eqbQZa9i8eTNefunl5sPLr6CmxrT8MjMzERwSrGxm7tGjh3IlGXn/1a+/+aZZneefn69MS0REpOWsg2J2TjYkqRHXXX89jhw5jMefmItjmcfUsVAuhfbEk3NRUFCAa665VjkIo1A9otjasrKzlANxJkyYpGzylDdDu7i44khaxx248k8VEBig9EbPnPkoUg4mY8ZDD2Lb1r/UsbavtLRUObrfWuRwW1xS0mww3582MzNLadN+fn7o0dO076J8EJQ8mNex5UsREhGR9Z11ULxwzBhlZ/5NmzYrByZUaJz/T76KyLPPPo30oyI0Pv6Uch1gWyDv3L9w4bvKCbfff/9D3HKzaTO03CtK54a8uV/+wfDC/Jfg6uKCOXNm44MPFqO8wrYvS9jZyEFW/iyGdglBj+7dRVA0bZImIiJqi7MKivIKX96hX772sJOzI267/Q5ln0T55NpN5Pty2S3/moaa6mrlRNCPPDIL8f0HqFNY186d23H//ffi8cfnKPuprV79uzqG2pO8CXTUqPOx4MVXlKOb3333Lcyb94zVz6H4dyYf0NK3Tz9lH0W5R5GIiKitziooFhYUYu26P7Fn74nT4YR1C8f5oy5QH8mXFLtAKZM1So3YvGUTNmxcjyorbfJydXHFFVdc2WyYMGGicmWOcePGnzROnr6jyadpcT2LI8PluvJz2Ar5ROdPPfUMbr75X/ht1UrMnDlDOa9mZ2U01iMuro+yq4J88nNbdSwzSyz7Xkrvoq3s7kFERJ1Lu1yZxZwcrqKiopWDVmSzZ89RLo23ZMl3ymNr6tqtG264/iaxcm/90bXy5ds+/+LTDr0Kx6BBg3Hvvf+HtPQMNLbxQAs7vR7hYd3w1ltvYquV9vmTTx+zatVv2L59K6Zecx2GnTcMGzdswNfffIXi4iJ1KtvQv/9A3H33PXjq6SdRq56c+nTkg59mz56r7FcZK8KifIDI559/iuuvuwEbN23EL7+cOJDL2npH9cZNN96oXMf6u++WqKVEREStI1+Z5R8VFDuT6OgYMUSrj9omMTFRuZKItcjnopw4cZJyCccjaUfw2acf49ChQ+pY2yIf8DFr1mzlmuStJf9oeO75Z5VLKE69+lqMGDFSOUjk66+/sqmg6ObuhlkzZyohUQ6LREREbXFOguLkyZfj8sumoKSsRHns5eGFH3783mrXHSbraDpgSQ6sTdcbtmXy1VicWnGy77r6OmVTrrnw8O644YabsGPHdpsKirJBgwZhz549HX/aISIi6vTOSVCUr7rSLz4eduruj43i3+5duzSPhib6O3F3c+fR20RE9LdxToIiEREREXV+clC03UM2iYiIiMiqGBSJiIiISBODIhERERFpYlAkIiIiIk0MikRERESkiUGRiIiIiDQxKBIRERGRJgZFIiIiItLEoEhEREREmhgUiYiIiEgTgyIRERERaWJQJCIiIiJNutg+8ZJ6n6hTs/OIhEPMA+K2t2jZerXURklGNJYlo+7Aa+L2oFpIRERkO8rLytijSH8fjv2egJ1njO2HRJmYR3le5XkmIiKyVQyKRERERKRJ1y2sBzc909+CvXc03AfMgsErBjo72+5VlBqNaCg5gPId81FfnKiWEhER2Rbuo0hEREREJ+E+ikRERER0SgyKRERERKSJQZGIiIiINDEoEhEREZEmBkUiIiIi0sSgSERERESaGBSJiIiISBODIhERERFpYlAkIiIiIk0MikRERESkiUGRiIiIiDQxKBIRERGRJl1sn3hJvU9EZNOcnZ3h4eEBR0cH2Oms8zu3UWpEbW0dysrKUF1drZaeXmedbyL6ZysX3xcMikTUKXh7ecHT01N9ZBtKS0tRXFKiPtLWWeebiEgOitz0TEQ2T+6Rs7WwJZPnSZ63U+ms801E1IRBkYhsnrzZ1ladbt4663wTETVhUCQimyfv22erTjdvnXW+iYiaMCgSkc2z1gEgrXG6eeus801E1ITfFERERESkiUGRiIiIiDQxKBIRERGRJgZFIiIiItLEoEhEREREmmzmyiw6vR18+/hA76hHcVIx6krr1DHUEeST78bH90d0dDR8vH2UsqLiIiQmJmLXrp285JeVBPj7imVfg/KKSrXE+vr3748BA/qrj0x27NiJnTt3qo/aX3hYmHrPMnL7vvjicfD181NLTAoLCrBy5Yqzbt9p6enqvebOdr5PReomfuPLg6Bb36DcWuJU801EJLOpS/gFDg2EV5Q36spr4OLrisK9Bcjfng9jXaM6he2ys7ODt5cnDAa9WnJ6DQ1GFJeUorHR+q9NnvcJEybh0ksni/s6HDx4CEVFRco4Hx8fREb2EvMpYdmypVi+/CebmOeW5BAQF9cH/v7+4j0wICs7G8ki4JZXlKtT2Ca9+HHk5uqqnM9OXq51dfWorKqG0WhUpwB6dg8TZVXIyc1XSzqefAm6/mbBsHv37spg7siRI8rQZKcIju15iThLApeTkxP69OkLd3cPdO/RQ9y6Y8/u3epYk779+qG8vBxHDh8Wt2XYu3cPampq1LGt1+FBMUovBlNQtPuhXrm1BIMiEZ2OTQXF8MnhqCgoQ9bOTHiFeaPLoK4iuOiRuyUXJcklkCTbvCS1HLR6R/RQAkprZ1Gnk8NiA5JTDls1eLm4uOC++6YjPLwbfvllBbZt29ospMj0ej0SEgZh/PhxSEvLwBtvvIIqEVxsgbubO666eipGjTof9fV1yMnJgUFvQFBwkFjGdti4YT0++/xTm+sNNYhlGhQUAB9vL6Vd19bWifnVwcHBXhlfVFwqgmGe8l7YQlCUQ+Ftt92qPmqdxYs/aBYcz1ZbA5ccEu+++/9gJ8K4/MPH19cXBfkF+OOP1eoUJhdccCH8/P1QWFio/DBqNDbinXfebHNYbK+g6ObuBjc3N/WRSUVFBSrKK9RHJgyKRNQRbCsoXtYd5XmlyN6VqTyWN0UHxgYiqG8I6oprkbUhG1XZthFQzMkr+9AQOZiI9NcGckDIzMoRocA6F+aXA+4jj8wWK1AfsVJ/HyVn6P3x8vISYeF2sUItwosvPmf1nsXQ0FDMmDETNdVV+Prbb7Bn967j8ySHxMGDBmHMRWPx9VdfIvVwqlJuC5ycHNE9rJuYVyOyRfgrK2ve6+nl6YHAQH+lPR1JO4ouom0xKLY9cCUkDMbo0Rfi1ddeRkN9PQKDgnDttTfAr8Wm54KCAnz11efIlX9k2NvjwQcewpo1q8WPpr/UKVqnvYLigAEDMGDgAPWRyY7tO7Bjxw71kQmDIhF1BJsOik3sne0RmtAVPj18UXKoFLmbc1BfYfkXY3sLDPCDv1j5yJtt20LenJsvVlK5eQVqSceaNGkyJk6ciNdff/2MIbGJHBbvv/9+/Pzzz/jpp6VqaceTNyU+/fSzSDtyGO8sfBv1dbbTHk5H7p2N7NVD6eHMOJaptAEtcojv1jUUziJUGo2NKCsvt2pQtAVtDVwXXngRwkXA/WDxIrWkdW697Q7Rro5g9epVaknrMCgS0d9RpwiKTVz9XdFlcDe4eLsgf1cB8nfkQzJaf9Y7Y1CU9+l77bU38csvy7F582a1VNDp4Bh8AfQ+pv3RjEU7UZv9h9z9qTyWDR06FOPHT8ADD/yf1TbpTpt2GyIjIvD4k3M7TUiUdQkNhquLM1JSj2iGRH8/X3i4mzY7yptMXcT7JMvNy7eJoNjaXkW5N7G9/VOCIjc9E5EtkYOi6ZumE6jMr0Ty8kSkb0qHd4w3Iq+LhGcvT3UstUXffvHKps2tW7eqJYJ47NZvJpwip6GiqkoZ5PtymTyuiVxHris/hzU4O7so+yTKm5vbEhJHjhilBAdrkXsJ5d0U5M3Np+pJlPeLkzczy0O5CAZyQJSHikrb2OWi6SCWMw22qGfPXkp41BrkcbZCDoQ52TnNBiUk6nWQIu3UgKgH/E58JpvKlMGsnIioPXSaoKgQ69ei1ALsX7IHhUcK0HVMF3Qb100EGXU8tUpMVAwOpaQ0O3BF6Un0ikHyilk4tnWRMsj35TJ5XBO5jlxXfo6OFBAYoISt2Lg45cAVeZ/EprIzOf+CC3DHv+/EnMcet1pYdHd3U/ZLbblPojn5FDhyz2HLocKGTo3TWQUGBSvvvdYgj7MVco+ifDCW+SCXQd56UiJBihCBMUoExmZBUQ6QYvAWX4XFaiERUTvpXEFR1djQiKwdx5D40wF4dPeAk6+TOoZaw8fXWzlHojm9Tz8UZ2xCXWWuWgLlvlwmjzMn15WfoyM9OmsObrv9DgT4+yM3JxcjR43CghdfUY5YPR05JN467XblYIWcnGzMmjlbCQcdzcHeXjm6maxj44Z1ymZorUEeZysiIyIxadKkZoNcJtPlSdBtET/utHa5yW2E3V+N2uOIiM5CpwyKMoOTAQExAWisl9BgQwe30Lnx+huvYuCABAwbNlw59Ykc/j748H3k5eapU5xM7nFsmk7erLtx4wZs37EN99/3oDoF/VNcdvkVeObZ5zUHeVxnoRkWGRKJ6BzqdEFRZ6dDQGwQ4q7oC1cfdxxZehgNNc3P/UenV1RYfPzqK02MRbvh3e08OLgGqiVQ7stl8jhzcl35OTqSfIDB/BeeQ1BQsHKqEzn8/fnHH+pYbfJ58x5+ZDrWrV0r6gQiLz8fi99fhOfnP6tO0XHq6uuVE2uTdaxZ/btmb6I8yONsxcGUg/jpp5+aDXKZuWZhkSGRiM6xThUUPbp4IuayOAT3CUHuljwc+uYQqvN4abm2OpB0AL0iIpTTtTSRj242lhxA73Hz0WXQHcog35fLlCOfVXIdua78HB1NDovPznsai/773hlDokw+r6Lc4ygfeGNv74D9+/YdL+to8sEp8kFAHh7uasmZycHSzc1VfURnQ75qT/fuPTQHeZytOOXBLC3IYdFuvZEhkYjOuU4RFB09ndDrokj0vDAClUercPDLgyjcV6gc3EJtJx8IIh9YMWjQILVEEI8rdr+AmoMfws3FRRnk+3KZ+elx5DpyXfk5rEEOi+vWr1UfnZm9gz2uuXoq1q79E9XV1jt6WA6o8snVgwP9W3UqJfkgne5hXeHp3vpgSafWmQ9mOeXgFIigADGoj5WDXoiI2plNn0dR72BAUHww/KMCUJ1VpVydpbaoVh1rG3jCbdslh8S777pHhIEeePzxOcq1fK3JkhNuHzx05KTLKlrLs88+o947vTlz5qr32s8/+YTbraV1Yu4z4XkUieh0bPY8ivImOr9If8Re0QfeoT449utRHFmWZnMhUVZf3yDmV33QBnIdua61LF/+E9LTjyqX5ZMD4Jk0XcJPriPXtQU9e/TE7NlzMGTwELE8TzRlOWjF9x+Ap598RgmJL730gtVDokwOfEfSM5QTnkf07K65GVq+hF9Er+7Kpf4Opx21mZBIRET/TDbTo9jtkm4w6hpQmFqI0AGhcHR3Qt62fBTuLbCJK7CcihxKekf0gMFgMN9Ce1pySGxoaEByymFlk6S1uLi44L77piM8vBt++WUFtm3belIwkXvBEhIGYfz4cUhLy8Abb7yCqirbOAG0HLhuvOEmDBs+Qiz7RmV/rgZjA4KCgpR9EuXNzf/79huUV5z63IXWYBDLNCgoQDkBt7wZXz5tjvzjyMHBXhlfVFyKnNw8mwuJ995zj7KJ83Tk9+Ctt99WH7WftvbMDRs2AgMGDMRbb72ulrTOvffejx07tmPjxvVqSeucyyuztJbWFVzOhD2KRHQ6NnUJP9dgV3Qb3w129nYoSS5B7l+5aKiyXo9bW8hh0dvLU4TFEweHnE5DgxHFJaVWDYlN5HmfMGESLr10srivw8GDh1BUZDrHoo+PDyIjeymbSJctW6r0JNrCPLfk7uaO3tHRCAkOEcu2Hvn5+di3b6/VLjHYWnq9HdxcXZWDVuTlWldXj8qqapvtRXR3d0e/+L5wECFcS119HXbv2oPy8vYP5m0NXD4+vvi/++5HUlIS8vNad/CSf0AAoqKi8OYbr4vPQKFa2jrtFRQ7GoMiEZ2OTQVFsi65dy4+vj+iReBqOnWOfGLtxMRE7Nq10+ZDF/29WRK4unTpovQsurXygKAKEXDlnsRjx46pJa3HoEhEf0cMikTUKXTWwMWgSESdmc0ezEJERERE1segSERERESaGBSJiIiISBODIhERERFpYlAkIiIiIk0MikRk8xol2zt/Z5PTzVtnnW8ioiYMikRk8+Sr19iq081bZ51vIqImDIpEZPPKyqx/re5TOd28ddb5JiJqwqBIRDZPvjJQaWmp+sh2yPN0uqsWddb5JiJqwiuzEFGnIV9q0sPDQ7k+tp3OOr9z5X375M22co9ca8NWZ51vIvpn4yX8iIiIiEgTL+FHRERERKfEoEhEREREmhgUiYiIiEgTgyIRERERaWJQJCIiIiJNDIpEREREpKnVp8eRD5EmIiIios7N3cNDvXd6PD1OK/j6B6j3iIiIiP5ZGBSJiIiISBODIhERERFpYlAkIiIiIk0MikRERESkiUGRiIiIiDQxKBIRERGRJgZFIiIiItLEoEhEREREmnhlljOQT7hdmJ+nPrKMJAVgyjMLMLmrTi05WeLnd2PBqgr1kajjOhaPvnkjInWmOpLUiPrqMhRlp2Dnmh+xbH06atRxTST/SXjihasRLspL/lyA6R/uEe+wWl8dF3bgE9y1YBXqzepK8XfgnftGwFmUNTbUoLIsB2l7N+PX75fjQKk6EREREf0t8MosNqceeYcPIDFpvzJklUsi+DWgOMP0WB7SC+vVaZuTavORKsYnJR/E0ZJGeIYnYNxtczHnpn5wlk6d8T37D0HsqXNpc2VZSE42zd/BtBxUO4Sgz/nXYvrTMzCSF6YhIiL6x9IHBAY9qd4/rbraWvXeuSfBEV5do9GjRziCg7vA274MhWV16tiO5eLqiuqqSvWRZXS6GhzdtQEbN5iG2t5T0D+wFjs+noW3vjOV7c8xqlOrHHpi5IS+8M1fg9eeeg8rNqzHutUr8MfeGoT3j0ePqBi4pPyKPQXq9DLXSFwwNhZOdbXQuwRAOvILduY2H+eVvxs/bTyMRrMeRV1xCrao87Zh3Rr89ttGZHrGYmBkL8QFl+LPjUdQZzY9ERERdV6Ojo7qvdOTs5/t9Sg6+SE0Kg5dfZ3RUFMD42l6zWxB3LQ3sfiDlzG1R8fMZ9WRFVi0PAmN8ELCeXFqaXMNh1KQLrmh3+B+0Fmw/HQNBdj26efYVCbyaswgJLioI4iIiMgm+PcNwOAHh6LrqG5qyblhU0FRcgxEj9494ONYj5LMAzh0tAy2HROto/RQGorFrZtfIJw0gqBj9V5sPyLBLX4I+hrUwrZqyEC2vGumzgfePqYiIiIisr7A+ED0HNcTegc7eIV7qaXnhm31KOodYFdbgGPJe3EsvxKNarEtM+U0eZ9D5WHHqK6BsiHe3gFanccGh2ps2XYIkks8BvezV0vbSN8Nwcr+iVWoOnGMDREREVmRHBK7X9wDOp0OxtoGHPntsDrm3LCtoFiTjbSkVJTU2GY/oiR1xZWPv4iHbr0cwyK8oRfpsK5Ojmw1qK0S4+39EHPBlbhjlphmvJ+pkjXoDSjb9BdSJRf0HRKvzGdbSAY/DLzpOgz1EPcz92FXiTqCiIiIrKZlSDzw9QFUZJ/b3hybCoq6xgY0wIYPmvCNQHigP2JHXoHbHn0ZCx6/E/Fe9SJNNSBgxL145tUXMeOWyzA00hddwntpbhbuEHY66Es2YVuKES5xQ9DaTsXYKTPxyOxn8Pyrz+PeC7rBYMzFmq9+Ri4PZCEiIjqn9I4GhF0YDp8I7f29rBESZbZ3MIsN0xWtxkv3P4T5i5dgw4FMSCHnYfygEOjseuC8iQPgU5OBXX98i/eeeRAz3tl00nkOO4zyd8uwZWsyjM59MWSAg6n8DLzCYhAVEQZ/hzrkp27Ckteexef7atSxREREdK4E9glAiMgUkVN6K6HQnLVCooxBsY10DUU4uP4HfPDSXMycvwSptY0wNkqoPPAlnp7xBN74eBn+OlIGow30wpX+tRUHjU6IGzQQ9ka06sAgSSrGn6/ejZnPvouf95epoZOIiIjOpeIjJUoIlMOgHAqbwqI1Q6KMQdFCkscATLvvSvRo2Iov/rcP9jHX4b4b46y3uVlL2WZsT26AU58hGGioR4szNRIREZGNqC6sUkKgeViMmBRh1ZAoY1C0gCR5Y9Stt2Godz1SfvoGq3/9BquydQi+8N+4KcFdneoccnaCsjG5vg7VSoE2na4KW7YeQINDHBLi7ExHSp/G5rfvxD13P4yvktQCIiIi6jByCDQPi36x/lYNiTIGRQsEjLkd1/R1Q93hpfh4RR50jen48aOVyG70wtCbpiHB49z2Knr2Coe3uC3PzznjFVMqt/yFxAYHxPWNPOMpfIz1NaipqbPtA4qIiIj+xszDosyaIVHGoGiBqqP7kZh5AD8uXoZsNVTVH/wfPlx5BNnJicg/h1cbdAkfhzsmRok3rgTbNu9XS0+jegu2HqiFQ0wUwk+z7VlyisKUGc9i3rwnceeFoXK3qTqGiIiIOpIcCvd/vh85O7KVW2uFRJkutk98qxJBeVmZeu/ckex9ERLieSK9Gtzg5e4E1JaipKreVFZbjNzsIjScoSetvfj6B6AwX75EyZnJC1K5ZF6LeZM3VQ+f9m8MVw9i8gyNQbCbESVHk5FTZSpLX/kavtl54nrakutYPPrmjYioK8DhI3mogx4O7gEICfKGk10dsle/iXmf7ka12d+S/CfhiReuRljyZ7hn/srjR107nXc/Xr1jABzFY2n/x7hrwSrUt5zHAXdi4b3DTNOkf4dZT/yA/BbTEBERUefn7uGh3js9OfvZVo+ivQvcvf3g4+NvGjycYSfCip2T1/Eybw8Xm90wqsyXZriyR0CPGERHxSpDiLtOTGaAdzfTY3kI89U+2aHO0R89xfio3pHo6m2HsrRtWPHBs3i2RUg8neptm7HvRAbVlroTOwvr0GgsR+qOvShQi4mIiOify6Z6FG1RW3oUiYiIiGxd5+1RJCIiIiKbwaBIRERERJoYFImIiIhIE4MiEREREWliUCQiIiIiTQyKRERERKSJQZGIiIiINDEoEhEREZEmBkUiIiIi0sSgSERERESaGBSJiIiISBODIhERERFpYlAkIiIiIk0MikRERESkiUGRiIiIiDQxKBIRERGRJgZFIiIiItLEoEhEREREmnSxfeIl9f5plZeVqff+WXz9A1CYn6c+OsEpbCQuv3wMBkaEwMPBiMr8DOzf9DOWLN+N4kadOlVzLt0vwBWXjUG/XkHwdJRQU5yF5G0rsOT7Tciub15H8p+EJ164GmHp3+GRJ39Eoe7EeKnHdVgwZxx8D3yCuxasQr06TnIag0feuRnR5tM2NqCmvABHEzfglyXLsDu/UR1jHZJobQH9e+KOa0MQ6qiDVJOLhbOSsM9sns+GJA3D/R/eifjTPJ8k7cVHd76Ideoyt2S5SVIspr35CEa5n+bvVK7Dq/f896TX5hE5Fpdfej769ggUbQeoLsnCoZ1rsPT7NUivPvXzUdsZAhMw+crxSOjdFb4uejSU5yHtwAb8/N1POFCsTiT0vHYBZl9sj1XP348vU0S7lNxwyey3cW2kDqn/m455Pxco00Xc8ApmjanED7PmYFne2b1XkqSDLv5aOE8dAb2T+JvVf6HmsQ9hPG3bbXsdiO8d+4uGwdAtEDoH8QEszUHDgbWoX7FBfP5OUY91Oq4OkRW4e3io905Pzn7sUbSAfcRUzH7sdozt1xWOVTnIOFYC+EVh2BXT8fgDY+AP8QXRglxn1qPTMLpvCJyqc5B+NB91rmEYOP5uzJ4xESF2J9exlFSbj9Sk/UgUQ1JKGoolL/QacgX+7/GHMDpQncgKJMmAqIl9MeOmEITYSzA2tt9rbsl8GbQckpIzUKrxpy1ZblJjCY6aPbf5kHQwC5XqdE08BtyBOQ/fiPNjg+FYnau0gwbXbug/9lbMmn0Dejudu2XyT6MLuQQPzf0/TEzoCS+pEMfSj6HU4Ifo4VPxoCgf4nViWRcUy6nRA17eTSvzQPj5SmhoaICPr79SIv/I8fX2FHeKUVikFFlMklxhGP8gXG4cATuHRtGOzvy+W1IHcTfB5a6r4dA7CLraXDRmFYpfrKFwGHkjXO69Cjrxg/UkrNNxdYg6AX1AYNCT6v3TqqutVe+dW5JkB2ffbgjt2h0hXboiMCgI3p7ucJBqUFlVJ779O/ZXmYurK6qrTqzuJckPE+69G4N9qnHg22fw3Ds/YM3a37FqYwa8+w5CRI8o+OT+jq3HGtQapjrj7v4PhvjWI+WHeXjmzSWizmqsXJ8M59ihiOreG74Ff2BLhnh9TVwjccHYWHiVJuK3P5JRbf66vfvg4lG94JK/Gz9tPIzGpnGGHhg+sR/88tfgtafew4oNG7Bx/Z/4/bcNyPTtj4SePRAVUoY/NxxGXQcvR8nggvNv7YtbhrrBsaYcf36egZI4XwRLldi2qgB57TY/XTH08gQEFa3Fm0+8i+XyMjhp2I9c815fi5ZbAPpPGI4ww1589sgr+N9Jf0MMW1JQYva6JLsoXPPQDYhxKRdtZz7mvf2dqR2sS4QhYhCiwnqjB3ZidWKpWoMsJYeqEbc/iIu66JC19nU8++JnWPnnH1j122YUBA8U72kEermmYuWOXOU7pcY7FhMGdUNN6mqsTxXfdbreuODqWOgL6uBjTMPyzWlohBf6XTIRMfpErFq+q1kvf1tIhhDY/+tBOA4Nha4mA/VfrARiYmEnZaFh9S5IGs9rUR27CDjccRUMor0Zf3wNVZ/+BOOWtajbkgx0i4e+awT0ur1oSDmxtYh1Oq4OkTU5Ojqq905Pzn421aMob1ZxDY1Dz26BcHM0orq0ECVl1YCTF3y7xaBnqLs8kTq1lTjEISpcLLb8tfhueQZq1C9oY9EOfPbzHhjhjMjY3krZcc59ENNdD5RsxPdLjxyvg7IkfPvTdtTCEVF9os/Za9M1FmH7Z99il1iUjtFDMKR1Pc7ty8Mb58U6oT47Cx++uhvf7K4TK17b1u7LrXt/9PEWt2m/4sPl5u3gIL77fDXyoUNwvAi51m7jfwe6aPSNEV+EDbvx82c7UaL+MNA15GPD5ytxSCxjz9h+IpirCopRIm48PH1MjwP84asvR1Z2Fex8feGnFPrBS37/igvFe3UW3PvAPlb8nayNqHl9AWr3lJz5s2BJna59YPASt4d/Rc3aDJGH1WVQKX7w/G8NJNHe7KL7Q2fe3lin4+oQdRK2tenZKQQhAU5AbR6OHNiDtLTDyDySiIOJh1Fu1MHJvxt87NVprcXeYFpoNdWoUgpOqNvyPh6d9TDm/S9RLVF5e8JT/t4oyEN2i++JhpxcyFuxHMUKysVUdG7UpCI9V9zq/OBn2pLWjH3oUFx191w8/8Z/8d6ixXj7tRcx667LER9gUKc4mXP4KFz/wFN48a1FeO+/C/Hq83Nx55QEBBg0vgwlI7K3J+OlVw9he0HbvyylgBG4+7l3sfC9t/DUvxLg2VFfuGdYbm3i7QVPcVN5LB1F6oqkiZSRgUx5ze/pBTWqKOR9VR//4GMsfmIyfFu8Znlf1RflcTPGwF5jebTl/ZFcx2KW/FzPTUW3gARcM30eXnn7fbz39ut46oHrMCjo1O2gtW1Hkpww/IH/YvEH7+P+ka5q6QmS5ILRMxaL8e/ijgHaX02tbgfOnnCT/3yx+MzVm4qOK9mFX7//AcvWJJ3YNaCwSAmKnt5NQdEPvuKTmZEuSn3Eey+X6XzhLX4sGEVQPLstzzWQdnyGqjc+g7GgtT+XLKgj2pK8FKXMdDHvzdsbctPRUCNuPTyarwRYp+PqEHUSNtVuDeKD5Cw+ZFUFx1AlguFx9QXILxLf9jpXuLipZdZSmY5MeXemLkNwfkTzrltdQwUK8/KQV2q2CVlm0Ivfk0KjEUalwEyD+qWv1+PcZmAnODjItw2ob7HitO95BR6d+x+MT+gJz4ZCHE07imJ4IVLdP29MsDqhGafoazF79m0Y01feTzMbGccKUO/RHUMm34e5Gvtc6opz8MnnechpaPEl2kru/UYgIdhVvAYPdBk5EjF6dcQ5d+rl1mbiPZY/cA3Gk1qBSB/1MMqLzM40zdlq6/tzgj8u/s+dOL+LHYpyc1Cu80DXfuNx58w7MdD95DptaTs6XQ3+Wr8D1aKlx5x3Htxahjy3IRjYW6S7yp3YvFtjGQmtbgd2dqblKJZ1y2fS6XKwfdn3+OGnbchpWqmXFaJYfGydxA82BzFfjv5+cK0uRtqxItS5eMNf/H6Fpy+85A0DRQXyk5jqWUBX/CdqvtgkGkLrn8OSOnJ7k0kNWg1XlMkLRqdv3jPJOh1Xh6iTsKmgaCxMQeK+ncjI1/qwySRIVv6k6XQpWLkiEbW6EIyb8RxmTJuCC/qHw8v+VCteGxHUH9HyARl1WTiWYyqSSZI/xt0wCWEOdTi84kU8On0Wnp33JB57aCbe+DMTRpcYXHn1CDiZrdQlqQsm3DAOIYYS7Ph0DmY8PBfznp6Dh2c8hSVJlXCJvArXj5a3w7Sf8t3rsS27EnX1ZTi2bh0OyF+8HeEUy82WndX74xmDgPS3TO1A1Jkx6yWszmyAznMQJo4OUicysaTt1O1Yjx1l4rdT76EYZt51KrgPTkCkWN+Wbt+AvSd28W3m3LWDfBQpx7N4wlfcBPuK/4vykav0NPrBR24Dvl4iAougWHxWG56tRtK7At6u4n1r/XcV63RcHSJbZVNBEY0NaKivEz++mv9qluAGT097caccFS0PI7WCvJVv4PWl+1Bk54+YUVNw831P46W3Xsejt1+Kvv6W9zScCxIc4N19BG6++1L0NOhQsnk1tpt3eHrEIzZcXjtvxJJv9qNUXfY6YzF2fvkLEkUwd4yMRi+lVBXQH31CxHRpq/DF6szjp+fRVadj2dd/iFWuHlEDBzULCGdLl7ce78z+D+7697144qNtKD1Tj45nAm6cNQsPz5x50jBthGmPs9M543JT6QyDcc9Hn+KDDz9pNiz+4GVM7WGllcTZvD/2h7Dm813H2wHK9uPrFXuVz2SXsJ5iwZjVsaTtGPdh3Va5R64XBg8PUAvlp3XDkEHRYs6KsW3DfjFe+/1tcztotXwUm7Y9K5v+/fx9IBUWoCC3SOkh9ZWbjK83PMSSKC4wO69OJyFJoXB48Hm4PjYPzqPO3P5lrNNxdYhsmW0FRQ3yAS4uIeHwcZBQk3cMpafoaehIOl0Vkn9YgEdmPIF3v/4ZG/eno0ysTCKGX43/m3Ufhvlb91ekLngSnlbDy4cfvo+XH/83RndzQU3aMiz8ak/zc655uIsYLuTnIrPFbOtq1+LV22/Bbfcuan4uQLHClPe1q83PRnHLFfWxHGVHf51Y4co9M9aic/RHz6hYRGsMPQOc1amaa9NyU53q9DhJySnIa7kTa0c5m/enOAfZLQJxXW6eaN+A3tEJzfY6tKDtyHcPrtuEbBEquw8ZeeLAHY8hGBAhQmf+Fmw82PGfH3mzeFFJNeDiBS97TwT4OKK0KB8NVSJAVjvCx88DnmK5GkRsLLRgH1vrq4FULH5l11WgsaK1Z7BgnY6rQ2S7bDooyusQR/9IhAe4iA/cURzLrjCtaWyEVJaGrSu+xvsvzcX06U/gi+0F0HkPwNSrBin7OVmL+fkA0+V9O4W8DW/gsWe/QUrLk77aqY+19p88FXX/L6fB9zXrRVMC1qLbECu/RwZD81DRwaSS1XjhXzfh1mk3nzTMWXJUnaq5Ni23Jo0HsXT+fCx44YUWw0L8kWOltno274/RiJN+ixkb1X2rdE39jCaWtB1Z+p/Yki4+H6FDMSLcVOQ5OAFyTsz6az3SrPQZL5B7CnWe8PEJgq8PUFQgn2i/UARIwNsnAH5ecvwuFuXK5J2KTleIhsWPonL2HNTtFN+jrcA6HVeHyJbZbFA0hcTe6NnFE7qabKQfzha/06y04m2NynT89v7X2FkNuPdNQIxabBVFW/CxGl6e+3QLysTC9AkNhkM798Y2FKc360UzH5JScyAWRefSQcuto9jq+6PT5WPd5oMiXAZi8LDe4rPuhsEJkdDjKLZuyFCn6nj5xfKxzB7w9PODj6dRBMJC8ThX2XfR29cfvt5eQJ0IjjzNJRH9g9hkUFRCom9vdJdDYlU20lIyUHWKy+J1NLfosbjy6qkYE+2qlpipTkeWcq4bH/iZH53dYITSv2inFyvDFgzqW2A0ysfGnWCUTL04ev3JPT969YjORuMZj6Kr27kUa442Qh82FhPjlcN3m2u6uoPGvMnvg95gD3uDmAP5QZNGUw9TffIPZj1oLYb/rmnHk2h3vDMuN0uI91hebnp5ebakt4deXlzqNMdZ0g466v2xpO2oitdvQLII4L6DhiHKaygGRhggpW3Bhmx1grOlLgN5uZ08byEYPGUqrpwyuNk5K6uKSsSPUXd49gqAr10RCvIlEWrrUVhcAYNvN3TzdBQzLsrV6W2eaEsynXgfTibK5AXTWN98JcA6HVeHqJOwuXYrf287+kaiezdP6KtykJYqQqL5qXKsrDEoHuPHT8RlI3tD33IF6NAFwfKe8MZKlMnnzWpSXGq6ZJxfAIJbvBRDUKCy83xtaVHz8zKWlaJCXtP5BCBI/pIx4yjqyOd+riovPf01XgX5VCArl28Xz+2JIRMugk/LeS4rh7JxJCAIXVo+lfP5eGDh+1j42jTEqkWKwmLInSpOfkHwaPF8ksENvgEBCPRy0gwIncUZl5slikuU5eYW2u2k59OFhSFU/jSWtAgioh2Uy+3ANwihLdZBLl1ClH0Rq8pKmreDjnp/LGk7TSo2YcOeasCrP0Ze3R+97Bpx6K/1Fl/t5CTV4vMj9wR7i89cy3W3Vz+MvXQiJgyPaH7u0vxCFIs1urt4L7xQhCL1Eu8FcpeiV3f0kBe2eH9OvvK7jSo1nZRbFxp28nsdGAaDfMqfUvEdYioxYZ2Oq0PUSdhUUJQ/X6aQ6AV9ZbYIiek2FRJllbt3I1V82l0HX4NbhgQdP9GxZAjAebdOxQBnEfr278R+882V1Xtx4Iio5DUMUyZ3P3G0qUcUrp40EI6oRdLeRPEtY/Za6/cjMVU8ictATJjcw6xOLKZeEidWZ7U4eCDZVHYGVVuWYm2OBEPEJZgQ02KtWbYL+9LFvHmchyuuiRUBVH09em8MvH4ieosWUpO0DylKqSpvJ/Zmiel6XoybRoeeWAZwR9y1j+L5+Qswa0qzY13PmjVOuH3a5WaJI2K5yQfMho/DtAnm7SASV14/GgHi/c/as715T1+9aDuHRDtwTsClV8XATX1/9D4DccO4WPEBrkbi3iSl7LiOen8saTsqna4OW9fvEEHTC4OHRMHOmIy/Np75NNatbgdSIvYm1opfYv0w8cb+8FLPGykZ/DH8hovRUyzj0v27cUQpVeWpJ90ODYVbdSHy1d3L8kRQlDy7oau73OtYcOKKOrbu6F40yC+oxyVwGtVNfL+qy8C1BxyuGg2deL8aD+xq/r3DOh1Xh6iT0MX2iTe16DMoLzv316iUXLqid2QwHNCAquIi1Mg/0VpoKM9CXonGeUrOEV//ABTmn+hDkK9FHTZxJh6+Kgou4vdhZWEWckvFKjgoBAGu9mgs34vP5y3AGvlqHmbsI6bi8YcnIsQgXlthJnLK7OAdFAofFz2qDn6N5174CVktNq/bR16Dx2dMOFGnXK3jrEfNke8wf94PyDAL0pLTGDzyzs2IyvkZTzz6NY6ZfSl5XDAD82/uA13Sp5j1wm/NTitiH3ElHntoMro6SKgtyUZWYS2c/EMR4ukIqXI/vnj2Bfze4hyCTtHXYc6D4xBsMKIiP1MsAyNcAkx1Gsv24ONnF2Bdvtm8ufvjpmnBkE9HZ2KAf5irCD51yE6vRlMHbOqqPfjhgPrAjNvYWXjjetOen1LjTrx/xyvYpLE7giQNw/0f3ol+pWvw4gMfIrkVX8yWLDdJisW0Nx/BSNdSHDuYaepZa6l6H/73+k84Yv58A+7AnP+MgK9evKdFWWo7CFHe0/rs3/Da058gscWBM4YeU/DYI5ejm0MjqoszkV1qB9+QEHg52qFi/yeY99JvyBWrInNtfn9cx+LRN29EhMYykK8As2DOOPge+AR3LVh1/HQ7MkvaThMJUbjllUdxgbcOdXs/wPSX16DK7Lm1tLYdyPSh4/HI7GvRy1nMW6lp3pzFMgh2d4SxeCvef/oNbCkxe51SHG5/+2EMdjTCkPMTHpvznXJCbin2X3jjodFwF/ezlj12yoOhWktyHwzHW0YpWyNNXKALC4ROqkBjxolzNDb8/jLqE9XAYUEdRdxNcLlpKHR6I6TiHDRW2MHOPxB2or1JmStR9cb3kFqexJt1Oq4OkZW4e7TumrRy9tMHBAY9qT4+LfnC0Oecsx+CvF1gp9PDwdkNLi4nD/b1RSgs77ig6OLqiuqqSvWR/INQQsnBjdiW0QAXT0/4iC+CQD8P6KvykLLjV3z27kf4S2Mnpsai/diyrxROPr7wDwxBoI+rCJVHsW/tl1i0eDWyNHpOGwv3Y2tiBVx9/eAbIEKWqIPKTCRuXILFi1Ygo75FHUMPDJ/YD34VKfjj9/0oM1vp1oiVifeIUejVNRi6/auw3+xUcI1Fidi4Ow8G+ZQpAUEI8veGY10RDu/5DV8u/Agbc09O7A0F+7BpbzGcvPzhHyzq+LpAqshF8uZl+GTRF9ghHwdgzs0bEyYHI9zbGd7eTmJwgKOYP53OAHflsWmoOpiObZlqHTO1Iol1iYuCn1MNsjcsxdIdWajVDBVdMfTyBATVpmHDil2t25Rp0XILQP8JwxHu5AxPvwD4awx+HsXYvrx5D2Ft9g5sSa6Cs7cv/MSyDvTzhquDHRrFimTBvE+RXH3y/DYWJ4m2U6Qsa79AUUe0A2NJOvas/gzvfbwOeRpBqc3vj0NPjJzQF74aywDefXDxqF5wyd+NnzYeRqPZOEvaznFSCdyiJqB/UAP2LF2EDcfOvGGu9e1APH35IWzemSnmzRc+yrx5waG2AKnbV+CThZ9il1lINLFD+LCxiPYSK/a0Dfh6Uxok+bntRJu6KAae4n76li+xKe3M83larnFwnDwUem8f2Hl7i8FNfA7EZ8HOUX1sGnDwFzTIPcOW1pHl7UF9arVyfkg7XxFa5F0OyjJh3LoUNV+s0g4urNNxdYisxNGx+ZXlTkXOfjbVo2iLWvYoErUnyWMUps+/DXH2afj+8cfxU/Y/Z2Ui2Q/Gva/dgwG6bXj3/jewreUPHyIiOifa0qNocwezEP2jlK7FklVH0agPxyVXj4Srum/TP4HrkBHo4yzv97sROztuIwEREbUBgyKRFclbNtOWf4et5YBL/BRcHt3iEPe/KfnciecNi4U9yrFz084zHr1PRETWwaBIZGW6mp34/pdk1MMPo6ZOROA/oVfRZwSG9DYAJduwcc9Z7vNHRETnDPdRPAPuo0hERER/J9xHkYiIiIjOGoMiEREREWliUCQiIiIiTQyKRERERKSJQZGIiIiINDEoEhEREZEmBkUiIiIi0sSgSERERESaGBSJiIiISBODIhERERFpYlAkIiIiIk0MikRERESkiUGRiIiIiDQxKBIRERGRJl1sn3hJvX9a5WVl6r1/Fl//ABTm56mPTnAKG4nLLx+DgREh8HAwojI/A/s3/Ywly3ejuFGnTtWcS/cLcMVlY9CvVxA8HSXUFGchedsKLPl+E7Lrm9eR/CfhiReuRlj6d3jkyR9RqDsxXupxHRbMGQffA5/grgWrUK+Ok5zG4JF3bka0+bSNDagpL8DRxA34Zcky7M5vVMdYhyRaW0D/nrjj2hCEOuog1eRi4awk7DOb57OhtQwajbWoKs3B4T1rsex/K5Fa2fxvWVLHEpLrWDz65o2IbHq/pEbUV5ehKDsFO9f8iGXr01HTYjl0ueI5PH1pF+X+ke8fwjNL85X7khSOaxc8hYt8G2GnS8P/HnoSvxSf/Ty2tl1LUhiuefFpjAs4899M/W465v1UoD46QfIch8deuQ697HRo2P8R7lvw+0mvvz3+TkeQJB108dfCeeoI6J1Eu67+CzWPfQhji9dDRGQL3D081HunJ2c/9ihawD5iKmY/djvG9usKx6ocZBwrAfyiMOyK6Xj8gTHwx8nZW64z69FpGN03BE7VOUg/mo861zAMHH83Zs+YiBC7VuX1VpFq85GatB+JYkhKSUOx5IVeQ67A/z3+EEYHqhNZgSQZEDWxL2bcFIIQewnGxvZ7zS1JYhkfUpdBSloe6py7oO8FN+GRx25BjJP237WkjiWa3p+k5IM4WtIIz/AEjLttLubc1A/OcpJuQZIKUVDUiLCYAXBrGh/SH338qpCVWWR63A7a1q6rkJd6QFlWTcOx0kYxr/UoyjhRJg/p+XVqneYcYnsjTNeIBqMEffdIRGlmqrP/O+eaJLnCMP5BuNw4AnYOYt7OYbsmIupo+oDAoCfV+6dVV1ur3jt3JJeu6B0bhZDgLgjUGAK87VCWX4qGDvyV7uLqiuqqSvWRvFLww4R778Zgn2oc+PYZPPfOD1iz9nes2pgB776DENEjCj65v2PrsQa1hqnOuLv/gyG+9Uj5YR6eeXOJqLMaK9cnwzl2KKK694ZvwR/YkmG2onONxAVjY+FVmojf/khGtflr9u6Di0f1gkv+bvy08TAam8YZemD4xH7wy1+D1556Dys2bMDG9X/i9982INO3PxJ69kBUSBn+3HAYdR3c0yEZXHD+rX1xy1A3ONaU48/PM1AS54tgqRLbVhUgr73mp2kZ5KzCS88swkqxDDbIy3pdIhyihiCySy+E1G/G2uQT76lFdSzh0BMjJ/SF7/H3Zz3WrV6BP/bWILx/PHpExcAl5VfsMesU84geg9GROiQlFiEk2gPZKzfiqFEHv/On4opeR7E9KQDdu1bhwMo/cKjG8mXY1nat01UhbbtoX3IbU4fKHpciIaQW2z54FO8sOVG+J1P7uyN27I0Y1q0YyUlG+Af7oHTfr9jfole0Pf7OuSQZQmD/rwfhODQUupoM1H+xEoiJhZ2UhYbVuyB18OeMiKg1HB0d1XunJ2c/2+pRrK9ASWEeCgtymw1F5bViRSZ+pRsbYd0Np4JDHKLCxWLLX4vvlmcc31RmLNqBz37eAyOcERnbWyk7zrkPYrrrgZKN+H7pkROb18qS8O1P21ELR0T1iZbX1qbydqZrLML2z77FrmrROKKHYEjrepzbl4c3zot1Qn12Fj58dTe+2V3Xse9l2UF8u2QTKqBDWEQM7FuzrC2pY4GqIyuwaHmSWB5eSDgvTi0154SylL3I0/dGXB970Uzc0L9Pd9Qn7sZhfes+7GdkSbs+C5IkfhRGiIZYk4Z1WzPEa/dFRLS/OrYTce8D+1gfIGsjal5fgNo9Jdb/jiIiakc2FRR19cXIO5qGLLMhu6AOjs4OkOqKcfRIZof3hJ3E3mBaaDXVqFIKTqjb8j4enfUw5v0vUS1ReXvCU57tgjxkt8gaDTkiCItbR08fuJiKzo2aVKTniludH/w01sf2oUNx1d1z8fwb/8V7ixbj7ddexKy7Lkd8gEGd4mTO4aNw/QNP4cW3FuG9/y7Eq8/PxZ1TEhBg0AhUkhHZ25Px0quHsL2g7YFLChiBu597FwvfewtP/SsBnhaENqmwCPKetjqDASK2t0pr6rTHvJUeSkOxuHXzC4TTSfUd4Zi3C/uLxQ+KOPGDwnkA+vSUkLJnBxrFfJ1Oq+fNknZ9NrxiERkg5i/jCPYlpSJbFHWLjINDO4fxNrVRi9RA2vEZqt74DMYCRkQi+vuxqaDYks45BN17dYGzsRDHUlJQWq+OsKbKdGTKa/QuQ3B+RPPeHF1DBQrz8pBX2mJfKYMeSrxtNMKoFJhpUFcuej3sTffOESc4OMi3DahvsRzte16BR+f+B+MTesKzoRBH046K0OKFSHW/xjHB6oRmnKKvxezZt2FMX3l/tmxkHCtAvUd3DJl8H+Zq7HOpK87BJ5/nIafBsqDv3m8EEoJdxWvwQJeRIxHT2qRnxq1nd/iK29y01JMOmjiV1tRpj3lDdQ2UVmPvIGJhS3rRPA5i174yeMT2QWTfPoiwO4I9OyrF5Kf/Y62eN0va9Vkw7Z8I5KQmoSI7Gakijet79ka0Zc1DU1vbqCV0xX+i5otN4mPVjjNORGRDbDYoHg+JDfk4mpJqGyFR0OlSsHJFImp1IRg34znMmDYFF/QPh5d9+/aEtLug/oiWD2Spy8KxHFORTJL8Me6GSQhzqMPhFS/i0emz8Oy8J/HYQzPxxp+ZMLrE4MqrRzTr5ZKkLphwwziEGEqw49M5mPHwXMx7eg4envEUliRVwiXyKlw/2kudun2U716PbdmVqKsvw7F163DgpMR9ajpHT3QbeAXuuSoeDqXb8MMvqeqYU2tLnbOZt9axE0FRQuLufajx7YMrx8TAMX0XdpTYw+H0HYqtnreObtdRUb1gQBXSUtLFoxQcOtIAOEeidw/T+LNljTZKRPR3ZJNBUZLs4dOlC1wNOkh2zvAO7gJPJ9v5xZ638g28vnQfiuz8ETNqCm6+72m89NbrePT2S9HX37Z6FiQ4wLv7CNx896XoKZZnyebV2G7eMeQRj9hwPVC6EUu+2Y9SU98ndMZi7PzyFyQ2Ao6R0eillKoC+qNPiJgubRW+WJ15/PQ8uup0LPv6D+RDj6iBgzQ2oVpOl7ce78z+D+7697144qNtKD1Dj6Cu6xQ8/9Gn+ODDT7B44Zt44p7x8E5bhrfnv42/yrTrWlJH1tZ5ayudTg+d+KQ27NmNxLoQREa649jeHSgQUUsuP522zFtHtevj+ydKh3EwWRKvrwFJqRni1r/99lO0QhslIvo7stEeRQm15QUoLMpHRY0dXLxD0LV3X4R6nqH7pIPIR2Im/7AAj8x4Au9+/TM27k9HGbwQMfxq/N+s+zDM37orH13wJDytBp4PP3wfLz/+b4zu5oIaEXoWfrWn+bndPNzhJt/m5yKzxWzratfi1dtvwW33Lmp+nkNfb3iKm9r8bBS3DB7HcsRKWNT19FY22VqL+alukg6lI7/KDgF9LsTkScMRqNd+fyyp01Hs7MRHtX4XduwqQFFRCrbtOCaXtusHuMPatbp/IrJSkazuEFmQfAhFIrR1i4xtn4OGOkEbJSLqDGwyKMo9DBU5h5GVfhgZqfuQlJKFajjCu0soXGyoB0AqS8PWFV/j/ZfmYvr0J/DF9gLovAdg6lWD2n2n/LYwP49iepFpm33ehjfw2LPfIKXlKVTs1Mda+0+eiggtcsNxGnyfEkbNhw8X3YZYecVsMMCqsb5gExbPn48FL7yAF+fNxcwHZmPRXxXoOvw23Hd1b+i13h9L6nQQnVimOl0NNi58CDMeegbL0lu8j+3oXLfrpv0Ty1JTkNsU4g4n43CdaDY9o9pnP8XO0EaJiDoBmwyKLTVWHkNhmVhB2XvAzUkttDWV6fjt/a+xsxpw75uAGLXYKoq24GM18Dz36RaUiZW7T2gwHE6c2rFdNBSnHz/ZccshKTVHhHvboWvIxaYPvsH2ah2CRo5Gn1YccGJJnb+dc9Cu5f0T7eWgFnYh7rzrP8pw1x2jECS3T5de6B1umq49dKY2SkRki2wqKDZ1VijnTDQjr1PqjfLRwXrYWXll7RY9FldePRVjol3VEjPV6chSznXjAz9le66qwWi6poWY+ZNm36C+BUYjmh2vY5RM52PT60/u9dCrmxwbjWc8Z1vdzqVYc7QR+rCxmBivHPbcXNNVJDTmTX4b9AZ72MunYDF/TxpN57OsT/5BCaOaw3/XtN9JtNtLXRqOyldjdA5CsLxdsjUsqWMJZyco7059nVXCi0Xt2gLH908UPMMHYsiQ89QhHl1c5V7TQETEtMMG4c7aRomIbIxNBUXXLv0RF5+ALi1WyHJGsRfhSHz7y9//VtUYFI/x4yfispEamyIduiDYR9waK1FWYypSFJeiVJ7ULwDBLdZLhqBAyFVqS4uan7+urBQV8mv1CUBQiwTnKOrIq9qq8tIzXktWp8vByuXbxXN7YsiEi+DTcp7LylEh3wYEoUvLp3I+Hw8sfB8LX5uGWLVIUViMUnHj5BcEjxbPJxnc4BsQgEAvp+bh0haIEOLvLW6lalS3No1ZUscCnr3CIf+Z8vwcq5wr1KJ2bYmm8ycWrMDT/7oJt067+cTwyh+oEH87LCLu7PdT7KxtlIjIxthUUKyurBBR0A4e/kFwMLuurM45FD4eYuVprEDl2a6ozlLl7t1INYpQO/ga3DIk6PgKTTIE4Lxbp2KAswh9+3div/lm3uq9OHBEVPIahimTu5840tIjCldPGghH1CJpb6Kp67RJ/X4kpooncRmICZN7mNWJxdRL4qAXdQ4eSDaVnUHVlqVYmyPBEHEJJsS0OFtj2S7sSxfz5nEerrgmVgRQ9fXovTHw+onoLVpITdI+pCilqryd2Jslput5MW4aHXpiGcAdcdc+iufnL8CsKc2Okz5rZ3tSa/n19Lv+GuWqNI3piTjQitDX2jpnO28u4eNwx8Qo0fJLsG3zfrW0fbR23ixq1xZo2j+xKiUJaWpZEykxESni+Q0RvdH7bLOyFdooEdHfkW1d67mmCjp3P3i4+8Db1xPOLm5w9wlFcKgvnHQNKD92CPnVHdul2PJaz6g6ggxjFAbHhqNnwoUYPXIwBgwZjYlXTcGoHp6QKvbhq3e+xMHKE2s65Xq12Y4YcF40wmNGijoJGDB0DC67fDzi/AyoTvkO7321D+WSeZ0aZOQ5i+miERY9wlTnPLnOOMT4GFCb9iMWf7kXpWZ1jl+zuCIFf/y+H2Vq8NShFMeMvTC6Xxi6+ZZh/fpU1DaNE/N2JMuAfkNiENZ7OEafPxT9E0bikilXYkykF3RVB/DNwq9wqNnrKcORbDFvQ+IQ2X80Lhg+CAMGn49xV16NS6J9gPK9+Or975FRdaKO5O6Pm+7qhbFDAjFMHob6oJuPAxz09giN8sVgtTywPBdJ8iGpLbgPux63DQuFXu8Ij24OOPrTJhwzf+1NmpaBgzfC+wzE0BEjMGLUxZh45RUYG+MHu4YsrFy8GH8VmB26Y0kdM62et6ZrPTv4ICyuv/g752P0+Ctx5YRBCHaqQ/bqhXjv95xm1zJXrvXc2wM5O3/AloyWIc8BvUZORJxv8Smv9dzqebOgXbcUOugyJIQYkbH5Z+zK057OdH1nA5J+/wib5R8o5oyl8O4zHrFBTije/RsSS7SfozV/x5I2agnJfTAc/30dHAYPg708DOkDvY8bdHpP2EXFm8rEoCvfhEaza3gTEVlTW671bFNBUYcGVBYVixAjAoSTK1xd3eDkoEN9VTEKRUjMKhbz0MGb5VoGRZ1OQsnBjdiW0QAXT0/4+Itw4+cBfVUeUnb8is/e/UgECnViM41F+7FlXymcfHzhHxiCQB9XNJYfxb61X2LR4tXIMp78uhoL92NrYgVcff3gGxCs1EFlJhI3LsHiRSuQUd+izimCoqwmIx/eI0ahV9dg6Pavwn75KhyqxqJEbNydB4N8upCAIAT5e8OxrgiH9/yGLxd+hI25J4fzhoJ92LS3GE5e/vAPFnV8XUSYyEXy5mX4ZNEX2FGoTtjEzRsTJgcj3NsZ3t5OYnCAo5g/nc4Ad+Wxaag6mI5tmWodM7UVQJe4KPg51SB7w1Is3ZF1POw2oy4Df3t3+PgFwF8Mvt7ucDCWITNxI5YuXoifU1p0S1tSx0yr500Nin4GV+Xv+Pn6wM1Qh9Jj+7Du+0V4f1nySVd/Odug2Np5s7RdmztTgJP3Txw5dTwi3NKx4YvfkNIipOl0dagNHIILe4fALv9PrDvFMm9NUJS1uY1awjUOjpOHQu/tAztvbzGIkCi3aztH9bFpwMFf0CD3cBIR2YC2BEVdbJ/4Vn17lZfJV7z95/H1D0Bhvnw0AxEREVHn5+5hOqjwTOTsZ1P7KBIRERGR7WBQJCIiIiJNDIpEREREpIlBkYiIiIg0MSgSERERkSYGRSIiIiLSxKBIRERERJoYFImIiIhIE4MiEREREWliUCQiIiIiTQyKRERERKSJQZGIiIiINDEoEhEREZEmBkUiIiIi0sSgSERERESaGBSJiIiISBODIhERERFpYlAkIiIiIk262D7xknr/tMrLytR7/yy+/gEozM9TH53gFDYSl18+BgMjQuDhYERlfgb2b/oZS5bvRnGjTp2qOZfuF+CKy8agX68geDpKqCnOQvK2FVjy/SZk1zevI/lPwhMvXI2w9O/wyJM/olB3YrzU4zosmDMOvgc+wV0LVqFeHSc5jcEj79yMaPNpGxtQU16Ao4kb8MuSZdid36iOaU4SrSCgf0/ccW0IQh11kGpysXBWEvaZPdfZ0Jq3RmMtqkpzcHjPWiz730qkVjb/W5bUsYQkBWDKMwswueupnyvx87uxYFWF+kjUUd+fcDFvJX8uwPQP94hPk6n+8feu5fsjDcP9H96JeLPX05Ik7cVHd76IdS3aQ1vajiUk17F49M0bEWk2b5LUiIaaMuQfPYCtK77DTzvyYNSY97Z8FiQpFtPefASj3E89z1LlOrx6z39PansekWNx+aXno2+PQPF3gOqSLBzauQZLv1+D9OpTPx+1jRR/B965bwScxfJvbKhBZVkO0vZuxq/fL8eBUnUiIurU3D081HunJ2c/9ihawD5iKmY/djvG9usKx6ocZBwrAfyiMOyK6Xj8gTHwx8nZW64z69FpGN03BE7VOUg/mo861zAMHH83Zs+YiBC7VuX1VpFq85GatB+JYkhKSUOx5IVeQ67A/z3+EEYHqhOZkSQDoib2xYybQhBiL8HY2H7z0pIkXvshdd5S0vJQ59wFfS+4CY88dgtinLT/riV12qYeeYcPKM8vD1nlklgmDSjOMD2Wh/TCenXak3n2H4LYNuQU8/en5ZCUnIHSFi/Jam0nOQWZpXbwizgPk+99Eg9eHCo3FnVKE0s+CzKpsQRHzV63+ZB0MAuV6nRNPAbcgTkP34jzY4PhWJ2rLIMG127oP/ZWzJp9A3q3SzsgRZn4EZJs+jwcTMtBtUMI+px/LaY/PQMjA9RpiOgfQx8QGPSkev+06mpr1XsdR5IcEHX1TNx/3SWIaNyH7WkVx3ttOoqLqyuqq06stiTJDxPuvRuDfapx4Ntn8Nw7P2DN2t+xamMGvPsOQkSPKPjk/o6txxrUGqY64+7+D4b41iPlh3l45s0los5qrFyfDOfYoYjq3hu+BX9gS0adWkNwjcQFY2PhVZqI3/5IRrX56/bug4tH9YJL/m78tPEwGpvGGXpg+MR+8Mtfg9eeeg8rNmzAxvV/4vffNiDTtz8SevZAVEgZ/txwGHVqHcnggvNv7YtbhrrBsaYcf36egZI4XwRLldi2qgB57bW8m+YtZxVeemYRVop52yAvg3WJcIgagsguvRBSvxlrk80igiV1LKDT1eDoLrGs5OUlhtreU9A/sBY7Pp6Ft74zle3PMapTq9T3x6muFnqXAEhHfsHO3ObjvFq+P+iKoZcnIKhoLd584l0sV/9e82E/cs164SxqO5Zw6ImRE/rC17ztbFiHP1atwPa8QMQP7Ilu0SEoX7ceabVq27HgswAEoP+E4Qgz7MVnj7yC/530+sWwJQUlZu1OsovCNQ/dgBiXcvF35mPe29+ZloFoB4aIQYgK640e2InViezuag+64hRsUd+LDevW4LffNiLTMxYDI3shLrgUf248cvz7g4g6J0dHR/Xe6cnZz6Z7FB0iJmFSPw8Ys//Ej+vEWtgWvpwc4hAVLhZb/lp8tzwDNeo8GYt24LOf98AIZ0TG9lbKjnPug5jueqBkI75feuR4HZQl4duftqMWjojqEy2veU3l7UzXWITtn32LXdWicUQPwRDzHmcPb5wX64T67Cx8+OpufLO7Dtobp8+RsoP4dskmVECHsIgY2LdmGVhS5xxpOJSCdMkN/Qb3g+5czIe1246uEdmbPsKPe8QPRUM0Bia4q2MESz4LlujeH328xW3ar/hwufkyOIjvPl+NfNEOguNFALdiO/g70zUUYNunn2NTmXjLYwYhwUUdQUT/CDYbFCVDOMZNHgTPxlxs+H5Vs14Wq7I3mBZaTTWqlIIT6ra8j0dnPYx5/0tUS1TenvCUZ78gD9kt1mUNObkoEreOnj44p9+/NalIl3u8dH7w8zcVKSQjsrcn46VXD2F7QdtXtFLACNz93LtY+N5beOpfCfC0YGUtFRZB3gNWZzBARKJWaU2d9pi3M3Gs3ovtRyS4xQ9BX4Na2J7Osu20xzKQe1wPicaj09kp++weZ8lnwRLeXvAUN5XH0lHUFBJVUkYGMuVfNp5e8DEVKeT9RB//4GMsfmIyfFu8Znkf3xflcTPGaP7IcA4fhesfeAovvrUI7/13IV59fi7unJKAAMPJ08r7ds6Sn+u5qegWkIBrps/DK2+/j/fefh1PPXAdBgWdulHYhw7FVXfPxfNv/BfvLVqMt197EbPuuhzxAaeu05Z5kw2+ezEWf/AmbopxQ/SkezD35bfx7qJFeP2FObjt4gg4t7Y9NGQgW95VW+cDb/MFTUR/ezYZFCXJDmEXX4UEbwl5m7/DmqwO7eM6vcp0ZBaL2y5DcH5E865bXUMFCvPykFfaYjOgQQ9l9dZoRIsNmOILWH1tej3sTffOESc4OMi3Dag3291OV5yDTz7PQ06DZUHcvd8IJAS7iuf2QJeRIxHT2qRnxq1nd/iK29y01BO9RWfQmjrtMW9nYnCoxpZthyC5xGNwv3PwDp5l22mvZeBkrzQeGM0bjyWfBUuI1yd/UTUYT1oC8gzBKGcdO9M0Z8sp+lrMnn0bxvSV97nMRsaxAtR7dMeQyfdh7mn3B/XHxf+5E+d3sUNRbg7KdR7o2m887px5Jwa6n1zHvucVeHTufzA+oSc8GwpxNO0oiuGFSHVf4jHB6oRmLJ830Q6G3IG7J/WGY2kusgpq4OgfgWHXPoQ7RsoRvBX03RCs/EaoQtWJY7qI6B/AJoOiIfRiTB7qBxRtxrKV6ZpHWlqLTpeClSsSUasLwbgZz2HGtCm4oH84vOxb+cvcWoL6I1o+kKUuC8dyTEXtoXz3emzLrkRdfRmOrVuHAxrr8lPROXqi28ArcM9V8XAo3YYffklVx5xaW+qczby1mt6Ask1/IVVyQd8h8dCfg17Ls9Eey0BCKPrH+YsfcLXIOpaplnbiz8IpSFIXTLhhHEIMJdjx6RzMeHgu5j09Bw/PeApLkirhEnkVrh/tpU7dgmcMAtLfwqPTZ+FZUWfGrJewOrMBOs9BmDg6SJ3IRJL8Me6GSQhzqMPhFS+a6sx7Eo89NBNv/JkJo0sMrrx6BJzM2tJZzZu8e0K3cnw4+wHMefppPD3rfjz+yU5UwBn9Jk1A2BnarGTww8CbrsNQD3E/cx92lagjiOgfweaComQXiNFTRiJAV4StP/6CdKPthMQmeSvfwOtL96HIzh8xo6bg5vuexktvvY5Hb78Uff1ta34lOMC7+wjcfPel6GnQoWTzamxvh06eJrq89Xhn9n9w17/vxRMfbUPpGUK9rusUPP/Rp/jgw0+weOGbeOKe8fBOW4a357+Nv8q061pSR9bWebOInQ76kk3YlmKES9wQtKpT0TMBN86ahYdnzjxpmDZC/EBqR2ezDOSj4V0Ce+MiUfeSrnpIxZvwx/bmSdPSz4LOMBj3qO+p+bD4g5cxtYeVgmZAf/QJEfOctgpfrM48flojXXU6ln39B/KhR9TAQc0C3HH2h7Dm810oNfX/AmX78fWKvTCKx13CesoL01Qu84hHbLgeKN2IJd/sP15HZyzGzi9/QWKjiHaR0eillKrOYt50Oicc2/gVdhSZeqDl/U5z1/yMv+TeYP8u6HKKNhs7ZSYemf0Mnn/1edx7QTcYjLlY89XPyD0XnyMislk2FRTl77jA86/C8CA9Snf8iF9TTYlGkvrj+mfm4+l7xsLnDL9+O4JOV4XkHxbgkRlP4N2vf8bG/ekogxcihl+N/5t1H4b5W3cedcGT8LS6Ev7ww/fx8uP/xuhuLqgR4WrhV3us2kNrfqqbpEPpyK+yQ0CfCzF50nAE6rWXmyV1OoyyLMuwZWsyjM59MWSAaRPt6egc/dEzKhbRGkPPAGd1Kuto1nY++gBvzX8MN5wXCvuqVCxb+DkOtNhFwdLPwqlOjyOfkiev5Q6PHcXXW9kXsjY/G8UtPyPHckQYE6/X01vZ5eEkxTnIbvEDrC43T9mPVu/ohGZ7HXq4w02+zc9FZovFo6tdi1dvvwW33buo+Xkkz2LeJKkCeTnl6qMmhSiVDxLXecLnFPsceoXFICoiDP4OdchP3YQlrz2Lz/fVqGOJ6J/CpoKizncULh/VFfqKnfjpl6Tjv5ptlVSWhq0rvsb7L83F9OlP4IvtBdB5D8DUqwbBwYqB1vxceOlFpn3K8ja8gcee/QYpNVZepgWbsHj+fCx44QW8OG8uZj4wG4v+qkDX4bfhvqt7a2+6taROByv9aysOGp0QN2gg7I3iPVDLtUglq/HCv27CrdNuPmmYs+SoOpV1NDvHY+Je7N25Eat/XITnZz+DH1NOfYqsNn8WGg9iqfqeNh8W4o8cK7VROzvlC9Fp8H3NejmV0LzoNsTK30cGQ/PQ18RohPlJgBTGRvUMArqmfkYTO/WR1n6np3I28yb+ysm7d5bgr29ex9tvfW7qWTwFSSrGn6/ejZnPvouf94vYa+PfyUTU/mwqKPYYNRJdDDVIWrkMydYONG1VmY7f3v8aO6sB974JiFGLraJoCz5WV8LPfboFZWJF7RMaDIeT1mTWp2vIxaYPvsH2ah2CRo5Gn1YcbGFJnXOubDO2JzfAqc8QDDTUtz4A2BqztrPgxQV49Y2F+OyHdUgta0MYt6XPggUaitOb9XKaD0mpORAvy2raa97kzc95STuwY0cSctvhyj5E9PdlU0HRYCf/HraDT59LccVV1xwfrrx6MDQOArQKt+ixYn6mYky0q1pipjodWcr5Snzgp2xbUjUYTT1MdvqTT+ViUN8C8ZO/2bU/jJKpN0KvP7mXQG/qXZB7JNTjXk+pbudSrDnaCH3YWEyMP/NmUauoS8NR+dQbzkEIbuVBmBbVOYfkTbBbth5Ag0McEuLs0G67gVrSdjqIRZ8FS4jXJ7dzvUGjv0xvD72cc9RpjrPk89No6gGsT/7BrIezxfDfNWd/EvqmKx9pvKdy56veYA97+bWa98R21LyZ2fz2nbjn7ofxVZJaQET/SDYVFGU6nSMCIwegf7z50ANeNrLJozEoHuPHT8RlIzU2eTp0QbC8v4+xEmXmu/IUl5ouy+YXgOAWL8MQFKic/622tKj5uejKSlEhrxl8AhDUYm3iKOrI58yuKi894/6GOl0OVi7fLp7bE0MmXGQT+3ieRBcIf/mEylI1qlvdJWJBnXOscstfSGxwQFzfyGbr+LNiSdvpIBZ9FixRXAJ5dzq30G4ntV9dWBhC5W+xkiIUmIpMxOenXP78+AYhtMXBGi5dQpT9/arKSpp/fgqLlb/j5BcEjxZ/RzK4wTcgAIFeTs0DnCXKyqGcYSYgCF1afnydz8cDC9/HwtemIVYtUnTUvJkx1tegpqYODc03nBPRP4xNBcWDS57C3DkzTxrmPPYVEtvxC/BsVO7ejVQj4Dr4GtwyJOj4CXslQwDOu3UqBjiLFff+ndhvvpm3ei8OHBGVvIZhyuTuJ45M9IjC1ZMGwhG1SNqbKKc6U7msfj8SU8WTuAzEhMk9zOrEYuolcdCLOgcPJJvKzqBqy1KszZFgiLgEE2La91x/Z3tCZ0nvjX7XX6NcLaYxPREHWhH6WlunI0643Uz1Fmw9UAuHmCiEt9e2Z0vajplzuQws+ixY4shO7JX3owsfh2kTzJdBJK68fjQCxGvP2rO9eW9avVhuh8Qfdk7ApVfFwE3da1TvMxA3jIsVX3zVSNzboqssT/ydLDFdz4tx0+jQE68H7oi79lE8P38BZk1pdiyyZcp2YV+6WHAe5+GKa2LFjz7174h2PfD6iegtvpVrkvYhRSlVddS8qSSnKEyZ8SzmzXsSd1548jW+ieifw6av9XxCMPpeGAe/iiPY/Fdq8+sen2Mtr/WMqiPIMEZhcGw4eiZciNEjB2PAkNGYeNUUjOrhCaliH75650scrDwxj/JmybRsRww4LxrhMSNFnQQMGDoGl10+HnF+BlSnfIf3vtqHcsm8Tg0y8pzFdNEIix5hqnOeXGccYnwMqE37EYu/3ItSszrHr41ckYI/ft+PMnU56VCKY8ZeGN0vDN18y7B+fSpq1XGSuz9uuqsXxg4JxDB5GOqDbj4OcNDbIzTKF4PV8sDyXCTJh1a24D7setw2LBR6vSM8ujng6E+bcMx8npo0zZuDN8L7DMTQESMwYtTFmHjlFRgb4we7hiysXLwYfxWYJSxL6php7bxJkjeGT7sf114yAsPF34gL84e7gx3cQ6LRb4iprEvVtubXe266nnPhHiwXy7NBLE+dzoh8XQ+MHdQNzvL20FNd67k2DRtW7EJhK9qxJW3HXKvfn6ZrPbdoO6dlwWfh+LWeHd0QHN0Pg8SylZdvs2GgF7I3Hzx+vWedVIC0An8MGtgLYXFiGYwaJJbBRWIZTEC/QAfUZ/+GRe+vRYHZEdk6XS0ysvToNzQG3SKH4QJRp79S5yJEeNqh8sCXeO/bZFSa9ZbpdGU4ki0+c0PiENl/NC4YLv7O4PMx7sqrcUm0D1C+F1+9/z0yqsxez+mW2ymuyS6/p0eyDKJtxSCs93CMPn8o+ieMxCVTrsSYSC/oqg7gm4Vf4VCz7xAL5k0IHXQZEkLqkbZxOfbkNx93Wn2vxP0T4+Dl4YNQr1Js+iMJVa1pE0TUKbTlWs8MimfQMijqdBJKDm7EtowGuHh6wsdfhCg/D+ir8pCy41d89u5HIrioE5tpLNqPLftK4eTjC//AEAT6uKKx/Cj2rf0SixavRpbG+SIbC/dja2IFXH394BsQrNRBZSYSNy7B4kUrkNFyJ/RTBEVZTUY+vEeMQq+uwdDtX4X9TUc6unljwuRghHs7w9vbSQwOcBT1dDoD3JXHpqHqYDq2nTjX8nG1FUCXuCj4OdUge8NSLN2RdTyENqPOm7+9O3z8AuAvBl9vdzgYy5CZuBFLFy/EzykttlFaUsdMq+cNHki48gaM6Gn6G+6O8uu3g7On6bE81B9agY2HzfY81AiKsvpcIPziQQgxiMftEBRllrSdJq1eBhYERcs+C6agGO7kDE912bYc/DyKsX158x7C2uwd2JJcBWdvX/gFBIm/4w1XEeYbM1diwbxPkVx98vw2FieJ5VYEJy9/+AWKOmK5GUvSsWf1Z3jv43XI07gsaEPBPmzaW6zU8Q8OQpCviwi8uUjevAyfLPoCOwrVCZtYEBRljUWJ2Lg7Dwb5lDbi9QT5e8OxrgiH9/yGLxd+hI25zfaeVLR53gSLg2KVXtSNR4hjNQ7/8QNWJosvjFa0CSLqHNoSFHWxfeJbtU2hvEw+I9g/j3xt28J8+agJIrIVkscoTJ9/G+Ls0/D944/jp2yGGCKi1nL3kI90ODM5+9ncwSxERGdUuhZLVh1Foz4cl1w9Eq7ch46I6JxgUCSiTkfeCpq2/DtsLQdc4qfg8mhbOJkmEdHfD4MiEXVKupqd+P6XZNTDD6OmTkQgexWJiNod91E8A+6jSERERH8n3EeRiIiIiM4agyIRERERaWJQJCIiIiJNDIpEREREpIlBkYiIiIg0MSgSERERkSYGRSIiIiLSxKBIRERERJoYFImIiIhIE4MiEREREWliUCQiIiIiTQyKRERERKSJQZGIiIiINDEoEhEREZEmBkUiIiIi0sSgSERERESaGBSJiIiISBODIhERERFpYlAkIiIiIk0MikRERESkiUGRiIiIiDQxKBIRERGRJgZFIiIiItLEoEhEREREmhgUiYiIiEgTgyIRERERaWJQJCIiIiJNDIpEREREpIlBkYiIiIg0MSgSERERkSYGRSIiIiLSxKBIRERERJoYFImIiIhIE4MiEREREWliUCQiIiIiTQyKRERERKSJQZGIiIiINDEoEhEREZEmBkUiIiIi0sSgSERERESaGBSJiIiISBODIhERERFpYlAkIiIiIk0MikRERESkiUGRiIiIiDQxKBIRERGRJgZFIiIiItLEoEhEREREmhgUiYiIiEgTgyIRERERaWJQJCIiIiJNDIpEREREpIlBkYiIiIg0MSgSERERkSYGRSIiIiLSxKBIRERERJoYFImIiIhIE4MiEREREWliUCQiIiIiTQyKRERERKSJQZGIiIiINDEoEhEREZEmBkUiIiIi0sSgSERERESaGBSJiIiISBODIhERERFpYlAkIiIiIk0MikRERESkiUGRiIiIiDQA/w/uHP4+JG4y9QAAAABJRU5ErkJggg==;" vertex="1" parent="1">
          <mxGeometry x="399" y="658" width="650" height="314" as="geometry" />
        </mxCell>
        <mxCell id="tVO9BalmmOsq1mHJatIv-2" value="" style="rounded=1;whiteSpace=wrap;html=1;shadow=0;sketch=0;fontFamily=Helvetica;fontSize=20;fontColor=#EA5B0C;strokeColor=none;strokeWidth=1;fillColor=#EA5B0C;opacity=50;gradientColor=#FBDECE;gradientDirection=east;" vertex="1" parent="1">
          <mxGeometry x="576" y="648" width="50" height="70" as="geometry" />
        </mxCell>
        <mxCell id="tVO9BalmmOsq1mHJatIv-3" value="1" style="ellipse;whiteSpace=wrap;html=1;aspect=fixed;gradientColor=#fbdece;strokeColor=none;fontColor=#f7f7f7;fontStyle=1;fontSize=20;fillColor=#EA5B0C;" vertex="1" parent="1">
          <mxGeometry x="570" y="604" width="62" height="62" as="geometry" />
        </mxCell>
        <mxCell id="tVO9BalmmOsq1mHJatIv-4" value="2" style="ellipse;whiteSpace=wrap;html=1;aspect=fixed;gradientColor=#fbdece;strokeColor=none;fontColor=#f7f7f7;fontStyle=1;fontSize=20;fillColor=#EA5B0C;" vertex="1" parent="1">
          <mxGeometry x="404" y="746" width="62" height="62" as="geometry" />
        </mxCell>
        <mxCell id="tVO9BalmmOsq1mHJatIv-5" value="2" style="shape=offPageConnector;whiteSpace=wrap;html=1;rounded=1;sketch=0;strokeColor=none;fontSize=20;fillColor=#3366FF;gradientColor=#C9D6FF;size=0.29411764705882354;fontColor=#FFFFFF;shadow=1;dashed=0;strokeWidth=3;fontStyle=1;arcSize=21;direction=west;" vertex="1" parent="1">
          <mxGeometry x="472" y="749" width="30" height="76" as="geometry" />
        </mxCell>
        <mxCell id="tVO9BalmmOsq1mHJatIv-6" value="3" style="shape=offPageConnector;whiteSpace=wrap;html=1;rounded=1;sketch=0;strokeColor=none;fontSize=20;fillColor=#3366FF;gradientColor=#C9D6FF;size=0.29411764705882354;fontColor=#FFFFFF;shadow=1;dashed=0;strokeWidth=3;fontStyle=1;arcSize=21;direction=west;" vertex="1" parent="1">
          <mxGeometry x="519" y="749" width="30" height="76" as="geometry" />
        </mxCell>
        <mxCell id="tVO9BalmmOsq1mHJatIv-7" value="4" style="shape=offPageConnector;whiteSpace=wrap;html=1;rounded=1;sketch=0;strokeColor=none;fontSize=20;fillColor=#3366FF;gradientColor=#C9D6FF;size=0.29411764705882354;fontColor=#FFFFFF;shadow=1;dashed=0;strokeWidth=3;fontStyle=1;arcSize=21;direction=west;" vertex="1" parent="1">
          <mxGeometry x="564" y="749" width="30" height="76" as="geometry" />
        </mxCell>
        <mxCell id="tVO9BalmmOsq1mHJatIv-8" value="5&lt;span style=&quot;color: rgba(0, 0, 0, 0); font-family: monospace; font-size: 0px; font-weight: 400; text-align: start; text-wrap: nowrap;&quot;&gt;%3CmxGraphModel%3E%3Croot%3E%3CmxCell%20id%3D%220%22%2F%3E%3CmxCell%20id%3D%221%22%20parent%3D%220%22%2F%3E%3CmxCell%20id%3D%222%22%20value%3D%224%22%20style%3D%22shape%3DoffPageConnector%3BwhiteSpace%3Dwrap%3Bhtml%3D1%3Brounded%3D1%3Bsketch%3D0%3BstrokeColor%3Dnone%3BfontSize%3D20%3BfillColor%3D%233366FF%3BgradientColor%3D%23C9D6FF%3Bsize%3D0.29411764705882354%3BfontColor%3D%23FFFFFF%3Bshadow%3D1%3Bdashed%3D0%3BstrokeWidth%3D3%3BfontStyle%3D1%3BarcSize%3D21%3Bdirection%3Dwest%3B%22%20vertex%3D%221%22%20parent%3D%221%22%3E%3CmxGeometry%20x%3D%22564%22%20y%3D%22749%22%20width%3D%2230%22%20height%3D%2276%22%20as%3D%22geometry%22%2F%3E%3C%2FmxCell%3E%3C%2Froot%3E%3C%2FmxGraphModel%3E&lt;/span&gt;" style="shape=offPageConnector;whiteSpace=wrap;html=1;rounded=1;sketch=0;strokeColor=none;fontSize=20;fillColor=#3366FF;gradientColor=#C9D6FF;size=0.29411764705882354;fontColor=#FFFFFF;shadow=1;dashed=0;strokeWidth=3;fontStyle=1;arcSize=21;direction=west;" vertex="1" parent="1">
          <mxGeometry x="610" y="749" width="30" height="76" as="geometry" />
        </mxCell>
        <mxCell id="tVO9BalmmOsq1mHJatIv-9" value="6" style="shape=offPageConnector;whiteSpace=wrap;html=1;rounded=1;sketch=0;strokeColor=none;fontSize=20;fillColor=#3366FF;gradientColor=#C9D6FF;size=0.29411764705882354;fontColor=#FFFFFF;shadow=1;dashed=0;strokeWidth=3;fontStyle=1;arcSize=21;direction=west;" vertex="1" parent="1">
          <mxGeometry x="657" y="749" width="30" height="76" as="geometry" />
        </mxCell>
        <mxCell id="tVO9BalmmOsq1mHJatIv-10" value="7" style="shape=offPageConnector;whiteSpace=wrap;html=1;rounded=1;sketch=0;strokeColor=none;fontSize=20;fillColor=#3366FF;gradientColor=#C9D6FF;size=0.29411764705882354;fontColor=#FFFFFF;shadow=1;dashed=0;strokeWidth=3;fontStyle=1;arcSize=21;direction=west;" vertex="1" parent="1">
          <mxGeometry x="703" y="749" width="30" height="76" as="geometry" />
        </mxCell>
        <mxCell id="tVO9BalmmOsq1mHJatIv-11" value="8" style="shape=offPageConnector;whiteSpace=wrap;html=1;rounded=1;sketch=0;strokeColor=none;fontSize=20;fillColor=#3366FF;gradientColor=#C9D6FF;size=0.29411764705882354;fontColor=#FFFFFF;shadow=1;dashed=0;strokeWidth=3;fontStyle=1;arcSize=21;direction=west;" vertex="1" parent="1">
          <mxGeometry x="750" y="749" width="30" height="76" as="geometry" />
        </mxCell>
      </root>
    </mxGraphModel>
  </diagram>
</mxfile>
